<?xml version="1.0" encoding="UTF-8" standalone="no"?>
<svg
   xmlns:dc="http://purl.org/dc/elements/1.1/"
   xmlns:cc="http://creativecommons.org/ns#"
   xmlns:rdf="http://www.w3.org/1999/02/22-rdf-syntax-ns#"
   xmlns:svg="http://www.w3.org/2000/svg"
   xmlns="http://www.w3.org/2000/svg"
   xmlns:sodipodi="http://sodipodi.sourceforge.net/DTD/sodipodi-0.dtd"
   xmlns:inkscape="http://www.inkscape.org/namespaces/inkscape"
   inkscape:version="1.0 (4035a4fb49, 2020-05-01)"
   sodipodi:docname="MMPLogo.svg"
   id="svg885"
   version="1.1"
   fill="none"
   viewBox="0 0 104 32.4142"
   height="32.4142"
   width="104">
  <metadata
     id="metadata891">
    <rdf:RDF>
      <cc:Work
         rdf:about="">
        <dc:format>image/svg+xml</dc:format>
        <dc:type
           rdf:resource="http://purl.org/dc/dcmitype/StillImage" />
      </cc:Work>
    </rdf:RDF>
  </metadata>
  <defs
     id="defs889" />
  <sodipodi:namedview
     inkscape:current-layer="svg885"
     inkscape:window-maximized="1"
     inkscape:window-y="-9"
     inkscape:window-x="-9"
     inkscape:cy="5.1739216"
     inkscape:cx="23.681015"
     inkscape:zoom="3.86875"
     showgrid="false"
     id="namedview887"
     inkscape:window-height="1001"
     inkscape:window-width="1920"
     inkscape:pageshadow="2"
     inkscape:pageopacity="0"
     guidetolerance="10"
     gridtolerance="10"
     objecttolerance="10"
     borderopacity="1"
     bordercolor="#666666"
     pagecolor="#ffffff" />
  <rect
     x="-29"
     id="rect863"
     fill="#ffffff"
     height="73"
     width="160"
     y="-18" />
  <path
     id="path865"
     fill="#00adef"
     d="M 61.6526,32.4142 H 0 V 0.1 h 61.6526 z" />
  <path
     id="path867"
     fill="#ffffff"
     d="m 26.5912,32.4145 0.1938,-21.625 c 0,-0.782 -0.0164,-1.4686 0,-2.2818 0.0164,-0.8126 -0.016,-1.414 0,-2.089 0.0325,-0.7818 -0.0485,-1.792 0,-2.5281 C 26.6063,4.671 26,6.4415 26,6.4415 L 25.5,7.9999 25,9.4758 18.0874,32.4145 h -2.378 L 8.8687,10.2672 C 8.7877,10.0412 8.7058,9.7773 8.6248,9.4758 L 8.3255,8.5077 7.9993,7.4521 7.6804,6.4187 C 7.4657,5.6058 7.2584,4.7623 7.0594,3.888 7.0745,4.7472 7.0976,5.5984 7.1288,6.4415 7.1594,7.1628 7.1783,7.9178 7.186,8.7079 c 0.0077,0.7898 0.0116,1.4834 0.0116,2.0816 v 21.625 H 4 V 0 h 4.7074 l 6.9741,22.5083 c 0.0951,0.3076 0.2166,0.6994 0.3645,1.1755 0.1472,0.4763 0.2812,0.9668 0.4015,1.4708 0.1205,0.5044 0.2291,0.9814 0.3259,1.4323 0.0961,0.4507 0.1684,0.7981 0.2166,1.0424 0.0319,-0.2465 0.1125,-0.5853 0.2424,-1.017 0.1292,-0.4317 0.2661,-0.8884 0.4111,-1.3706 L 18.0627,23.8416 18.5,22.5083 25.2107,0 h 4.6241 v 32.4145 z" />
  <path
     id="path869"
     fill="#ffffff"
     d="m 55.5912,32.4145 0.1938,-21.625 c 0,-0.782 -0.0164,-1.4686 0,-2.2818 0.0164,-0.8126 -0.016,-1.414 0,-2.089 0.0325,-0.7818 -0.0485,-1.792 0,-2.5281 C 55.6063,4.671 55,6.4415 55,6.4415 L 54.5,7.9999 54,9.4758 47.0874,32.4145 h -2.378 L 37.8687,10.2672 C 37.7877,10.0412 37.7058,9.7773 37.6248,9.4758 L 37.3255,8.5077 36.9993,7.4521 36.6804,6.4187 c -0.2147,-0.8129 -0.422,-1.6564 -0.621,-2.5307 0.0151,0.8592 0.0382,1.7104 0.0694,2.5535 0.0306,0.7213 0.0495,1.4763 0.0572,2.2664 0.0077,0.7898 0.0116,1.4834 0.0116,2.0816 v 21.625 H 33 V 0 h 4.7074 l 6.9741,22.5083 c 0.0951,0.3076 0.2166,0.6994 0.3645,1.1755 0.1472,0.4763 0.2812,0.9668 0.4015,1.4708 0.1205,0.5044 0.2291,0.9814 0.3259,1.4323 0.0961,0.4507 0.1684,0.7981 0.2166,1.0424 0.0319,-0.2465 0.1125,-0.5853 0.2424,-1.017 0.1292,-0.4317 0.2661,-0.8884 0.4111,-1.3706 L 47.0627,23.8416 47.5,22.5083 54.2107,0 h 4.6241 v 32.4145 z" />
  <path
     id="path871"
     fill="#00adef"
     d="M 75.45,9.8001 C 75.45,7.7452 74.936,6.1847 73.909,5.1188 72.881,4.0526 71.332,3.5197 69.2615,3.5197 h -7.1548 v 12.7907 h 7.3161 c 2.0702,0 3.5922,-0.5593 4.5662,-1.6792 0.974,-1.1192 1.461,-2.7296 1.461,-4.8311 z m 3.612,-0.0459 c 0,1.4114 -0.192,2.726 -0.576,3.9452 -0.383,1.2195 -0.954,2.2777 -1.713,3.1748 -0.76,0.8974 -1.711,1.6068 -2.852,2.1279 -1.144,0.5217 -2.473,0.7823 -3.9925,0.7823 H 62.1067 V 32.4142 H 58.5179 V 0 H 69.699 c 1.564,0 2.933,0.2337 4.106,0.7017 1.173,0.4676 2.151,1.1269 2.933,1.9784 0.783,0.8511 1.365,1.8787 1.748,3.0825 0.384,1.2044 0.576,2.5348 0.576,3.9916 z" />
  <path
     id="path873"
     fill="#00adef"
     d="m 70.2343,29.7287 h 0.8297 c -0.0647,0.7926 -0.3022,1.4236 -0.712,1.8935 -0.4102,0.47 -0.9518,0.7049 -1.6242,0.7049 -1.64,0 -2.4603,-1.2805 -2.4603,-3.8424 0,-2.5524 0.8431,-3.8285 2.5294,-3.8285 1.4284,0 2.1838,0.7833 2.2671,2.3496 h -0.8297 c -0.0919,-1.1057 -0.5712,-1.6586 -1.4374,-1.6586 -0.5159,0 -0.9029,0.1984 -1.161,0.5944 -0.3224,0.5069 -0.4838,1.3593 -0.4838,2.557 0,1.2439 0.1662,2.1102 0.4976,2.5984 0.2304,0.3594 0.585,0.5391 1.0646,0.5391 0.8749,0 1.3818,-0.6358 1.52,-1.9074 z" />
  <path
     id="path875"
     fill="#00adef"
     d="m 75.901,21.961 h 0.982 l -1.355,1.9488 h -0.664 z m 0.774,7.6018 v -1.548 h -0.028 c -0.064,0.1845 -0.359,0.3456 -0.884,0.4838 l -0.691,0.1797 c -0.839,0.2211 -1.258,0.728 -1.258,1.5203 0,0.4333 0.104,0.7811 0.311,1.0437 0.207,0.2623 0.491,0.3938 0.85,0.3938 0.516,0 0.928,-0.1842 1.237,-0.5529 0.309,-0.3684 0.463,-0.8753 0.463,-1.5204 z m -2.681,-2.557 h -0.83 c 0,-1.5663 0.756,-2.3496 2.267,-2.3496 1.383,0 2.073,0.6496 2.073,1.9488 v 4.34 c 0,0.4053 0.143,0.6081 0.429,0.6081 h 0.235 v 0.6082 c -0.147,0.0553 -0.277,0.0829 -0.387,0.0829 -0.36,0 -0.617,-0.0553 -0.774,-0.1658 -0.193,-0.1383 -0.29,-0.387 -0.29,-0.7464 v -0.2488 h -0.028 c -0.286,0.8293 -0.917,1.2439 -1.893,1.2439 -1.245,0 -1.866,-0.691 -1.866,-2.0732 0,-1.0781 0.493,-1.7553 1.478,-2.0318 l 1.562,-0.4423 c 0.323,-0.0919 0.53,-0.2256 0.622,-0.4008 0.055,-0.1289 0.083,-0.3822 0.083,-0.7602 0,-0.8476 -0.424,-1.2716 -1.272,-1.2716 -0.939,0 -1.409,0.5529 -1.409,1.6586 z" />
  <path
     id="path877"
     fill="#00adef"
     d="m 80.241,32.1613 v -7.3392 h 0.746 v 1.0228 h 0.028 c 0.405,-0.7924 1.032,-1.1887 1.88,-1.1887 1.253,0 1.88,0.6544 1.88,1.9627 v 5.5424 h -0.83 v -5.3075 c 0,-1.0041 -0.419,-1.5065 -1.258,-1.5065 -0.488,0 -0.88,0.1726 -1.174,0.5184 -0.295,0.3453 -0.443,0.7994 -0.443,1.3613 v 4.9343 z" />
  <path
     id="path879"
     fill="#00adef"
     d="m 90.994,29.7287 h 0.829 c -0.064,0.7926 -0.302,1.4236 -0.711,1.8935 -0.411,0.47 -0.952,0.7049 -1.625,0.7049 -1.64,0 -2.46,-1.2805 -2.46,-3.8424 0,-2.5524 0.843,-3.8285 2.529,-3.8285 1.429,0 2.184,0.7833 2.267,2.3496 h -0.829 c -0.092,-1.1057 -0.571,-1.6586 -1.438,-1.6586 -0.515,0 -0.902,0.1984 -1.161,0.5944 -0.322,0.5069 -0.483,1.3593 -0.483,2.557 0,1.2439 0.166,2.1102 0.497,2.5984 0.231,0.3594 0.585,0.5391 1.065,0.5391 0.875,0 1.382,-0.6358 1.52,-1.9074 z" />
  <path
     id="path881"
     fill="#00adef"
     d="m 94.657,27.8351 h 3.11 c -0.01,-0.8935 -0.143,-1.5387 -0.399,-1.935 -0.248,-0.3683 -0.633,-0.5529 -1.156,-0.5529 -0.523,0 -0.904,0.1846 -1.142,0.5529 -0.266,0.3963 -0.404,1.0415 -0.413,1.935 z m 3.11,1.8936 h 0.829 c -0.064,0.7926 -0.304,1.4236 -0.719,1.8935 -0.414,0.47 -0.963,0.7049 -1.645,0.7049 -1.64,0 -2.46,-1.2805 -2.46,-3.8424 0,-2.5521 0.841,-3.8285 2.522,-3.8285 0.809,0 1.404,0.288 1.785,0.8637 0.382,0.576 0.572,1.4769 0.572,2.7022 v 0.3041 h -3.994 v 0.3456 c 0,1.843 0.52,2.7643 1.562,2.7643 0.894,0 1.409,-0.6358 1.548,-1.9074 z" />
  <path
     id="path883"
     fill="#00adef"
     d="m 101.001,32.1613 v -7.3392 h 0.829 v 1.1471 c 0.345,-0.8752 0.971,-1.313 1.876,-1.313 0.102,0 0.201,0.0138 0.294,0.0415 v 0.8293 c -0.139,-0.0277 -0.272,-0.0415 -0.401,-0.0415 -0.497,0 -0.908,0.1707 -1.23,0.5114 -0.359,0.378 -0.539,0.9032 -0.539,1.5757 v 4.5887 z" />
</svg>
